<svg xmlns="http://www.w3.org/2000/svg" viewBox="0 0 820 510" width="100%" font-family="Pretendard, -apple-system, Apple SD Gothic Neo, Malgun Gothic, Noto Sans KR, sans-serif" style="max-width:820px;background:#fff"><defs><marker id="arr-ink" viewBox="0 0 10 10" refX="9" refY="5" markerWidth="7" markerHeight="7" orient="auto-start-reverse"><path d="M0,0 L10,5 L0,10 z" fill="#1B2A41"/></marker><marker id="arr-sky" viewBox="0 0 10 10" refX="9" refY="5" markerWidth="7" markerHeight="7" orient="auto-start-reverse"><path d="M0,0 L10,5 L0,10 z" fill="#0E7AC4"/></marker><marker id="arr-gray" viewBox="0 0 10 10" refX="9" refY="5" markerWidth="7" markerHeight="7" orient="auto-start-reverse"><path d="M0,0 L10,5 L0,10 z" fill="#8A97A8"/></marker><marker id="arr-purple" viewBox="0 0 10 10" refX="9" refY="5" markerWidth="7" markerHeight="7" orient="auto-start-reverse"><path d="M0,0 L10,5 L0,10 z" fill="#7B4FD0"/></marker><marker id="arr-good" viewBox="0 0 10 10" refX="9" refY="5" markerWidth="7" markerHeight="7" orient="auto-start-reverse"><path d="M0,0 L10,5 L0,10 z" fill="#3BA776"/></marker><marker id="arr-red" viewBox="0 0 10 10" refX="9" refY="5" markerWidth="7" markerHeight="7" orient="auto-start-reverse"><path d="M0,0 L10,5 L0,10 z" fill="#D9534F"/></marker></defs><rect width="820" height="510" fill="#ffffff"/><rect x="10" y="20" width="215" height="480" rx="10" fill="#F1F8FE" stroke="#4FA3E0" stroke-width="1.5" stroke-dasharray="8 5"/>
<text x="22" y="488" text-anchor="start" font-size="13" font-weight="700" fill="#0E7AC4">B2B 영역</text>
<rect x="505" y="110" width="305" height="260" rx="10" fill="#F1F8FE" stroke="#4FA3E0" stroke-width="1.5" stroke-dasharray="8 5"/>
<text x="517" y="358" text-anchor="start" font-size="13" font-weight="700" fill="#0E7AC4">B2C 영역 · 요금제·재고 도메인 (담당)</text>
<rect x="22" y="44" width="191" height="62" rx="7" fill="#FFFFFF" stroke="#4FA3E0" stroke-width="1.4"/>
<text x="117.5" y="64.2" text-anchor="middle" font-size="13.5" font-weight="700" fill="#1B2A41">공급사 관리 화면</text>
<text x="117.5" y="84.8" text-anchor="middle" font-size="12" fill="#6B7A90">B2B 파트너가</text>
<text x="117.5" y="100.2" text-anchor="middle" font-size="12" fill="#6B7A90">요금·프로모션 설정</text>
<rect x="22" y="140" width="191" height="220" rx="7" fill="#FFFFFF" stroke="#4FA3E0" stroke-width="1.4"/>
<text x="117.5" y="239.2" text-anchor="middle" font-size="13.5" font-weight="700" fill="#1B2A41">공급사 요금제 서비스</text>
<text x="117.5" y="259.8" text-anchor="middle" font-size="12" fill="#6B7A90">요금제 원장</text>
<text x="117.5" y="275.2" text-anchor="middle" font-size="12" fill="#6B7A90">공급사 재고 원장</text>
<rect x="22" y="400" width="191" height="62" rx="7" fill="#E8F6EF" stroke="#3BA776" stroke-width="1.4"/>
<text x="117.5" y="428.0" text-anchor="middle" font-size="13.5" font-weight="700" fill="#1B2A41">프로모션 서비스</text>
<text x="117.5" y="448.5" text-anchor="middle" font-size="12" fill="#6B7A90">번들 생성 (담당)</text>
<path d="M 117 106 L 117 138" fill="none" stroke="#1B2A41" stroke-width="1.6" marker-end="url(#arr-ink)"/>
<path d="M 95 360 L 95 398" fill="none" stroke="#1B2A41" stroke-width="1.6" marker-end="url(#arr-ink)"/>
<path d="M 140 400 L 140 362" fill="none" stroke="#1B2A41" stroke-width="1.6" marker-end="url(#arr-ink)"/>
<text x="150" y="385" text-anchor="start" font-size="12" font-weight="500" fill="#6B7A90">gRPC</text>
<rect x="520" y="140" width="165" height="76" rx="7" fill="#FFFFFF" stroke="#4FA3E0" stroke-width="1.4"/>
<text x="602.5" y="167.2" text-anchor="middle" font-size="13.5" font-weight="700" fill="#1B2A41">요금제/재고 API</text>
<text x="602.5" y="187.8" text-anchor="middle" font-size="12" fill="#6B7A90">차감·조회·캘린더 요약</text>
<text x="602.5" y="203.2" text-anchor="middle" font-size="12" fill="#6B7A90">판매 설정 동기화</text>
<rect x="520" y="270" width="165" height="60" rx="7" fill="#FFFFFF" stroke="#4FA3E0" stroke-width="1.4"/>
<text x="602.5" y="289.2" text-anchor="middle" font-size="13.5" font-weight="700" fill="#1B2A41">요금제 관리 서비스</text>
<text x="602.5" y="309.8" text-anchor="middle" font-size="12" fill="#6B7A90">설정 이벤트 소비</text>
<text x="602.5" y="325.2" text-anchor="middle" font-size="12" fill="#6B7A90">취소 복원</text>
<rect x="705" y="140" width="92" height="50" rx="7" fill="#FFFFFF" stroke="#8A97A8" stroke-width="1.4"/>
<text x="751.0" y="162.0" text-anchor="middle" font-size="13.5" font-weight="700" fill="#1B2A41">Redis</text>
<text x="751.0" y="182.5" text-anchor="middle" font-size="12" fill="#6B7A90">분산 Lock</text>
<rect x="705" y="262" width="92" height="76" rx="7" fill="#FFFFFF" stroke="#8A97A8" stroke-width="1.4"/>
<text x="751.0" y="289.2" text-anchor="middle" font-size="13.5" font-weight="700" fill="#1B2A41">MySQL</text>
<text x="751.0" y="309.8" text-anchor="middle" font-size="12" fill="#6B7A90">재고·요금제</text>
<text x="751.0" y="325.2" text-anchor="middle" font-size="12" fill="#6B7A90">오픈 일정</text>
<path d="M 685 165 L 703 165" fill="none" stroke="#8A97A8" stroke-width="1.6" marker-end="url(#arr-gray)"/>
<path d="M 685 204 L 751 204 L 751 260" fill="none" stroke="#8A97A8" stroke-width="1.6" marker-end="url(#arr-gray)"/>
<path d="M 685 300 L 703 300" fill="none" stroke="#8A97A8" stroke-width="1.6" marker-end="url(#arr-gray)"/>
<rect x="520" y="40" width="110" height="38" rx="7" fill="#FFFFFF" stroke="#4FA3E0" stroke-width="1.4"/>
<text x="575.0" y="63.8" text-anchor="middle" font-size="13.5" font-weight="700" fill="#1B2A41">예약 서비스</text>
<rect x="645" y="40" width="130" height="38" rx="7" fill="#FFFFFF" stroke="#4FA3E0" stroke-width="1.4"/>
<text x="710.0" y="63.8" text-anchor="middle" font-size="13.5" font-weight="700" fill="#1B2A41">상품 노출 API</text>
<path d="M 575 78 L 575 138" fill="none" stroke="#1B2A41" stroke-width="1.6" marker-end="url(#arr-ink)"/>
<path d="M 670 78 L 670 138" fill="none" stroke="#1B2A41" stroke-width="1.6" marker-end="url(#arr-ink)"/>
<rect x="540.0" y="91.0" width="70" height="19" fill="#FFFFFF" opacity="0.95" rx="3"/>
<text x="575" y="104" text-anchor="middle" font-size="12" font-weight="500" fill="#1B2A41">차감 REST</text>
<rect x="635.0" y="91.0" width="70" height="19" fill="#FFFFFF" opacity="0.95" rx="3"/>
<text x="670" y="104" text-anchor="middle" font-size="12" font-weight="500" fill="#1B2A41">조회 HTTP</text>
<path d="M 213 160 L 518 160" fill="none" stroke="#1B2A41" stroke-width="1.6" marker-end="url(#arr-ink)"/>
<rect x="310.8" y="151.0" width="108" height="19" fill="#FFFFFF" opacity="0.95" rx="3"/>
<text x="365" y="164" text-anchor="middle" font-size="12" font-weight="500" fill="#1B2A41">판매 설정 동기화</text>
<path d="M 520 196 L 215 196" fill="none" stroke="#1B2A41" stroke-width="1.6" marker-end="url(#arr-ink)"/>
<rect x="314.4" y="187.0" width="101" height="19" fill="#FFFFFF" opacity="0.95" rx="3"/>
<text x="365" y="200" text-anchor="middle" font-size="12" font-weight="500" fill="#1B2A41">원장 차감 HTTP</text>
<rect x="320" y="250" width="90" height="100" rx="7" fill="#F1EBFB" stroke="#7B4FD0" stroke-width="1.4"/>
<text x="365.0" y="304.8" text-anchor="middle" font-size="13.5" font-weight="700" fill="#1B2A41">Kafka</text>
<path d="M 213 300 L 318 300" fill="none" stroke="#7B4FD0" stroke-width="1.6" stroke-dasharray="6 4" marker-end="url(#arr-purple)"/>
<rect x="227.4" y="257.0" width="77" height="19" fill="#FFFFFF" opacity="0.95" rx="3"/>
<text x="266" y="270" text-anchor="middle" font-size="12" font-weight="500" fill="#7B4FD0">설정 이벤트</text>
<rect x="215.4" y="275.0" width="101" height="19" fill="#FFFFFF" opacity="0.95" rx="3"/>
<text x="266" y="288" text-anchor="middle" font-size="12" font-weight="500" fill="#7B4FD0">(규칙셋 id 키)</text>
<path d="M 410 300 L 518 300" fill="none" stroke="#7B4FD0" stroke-width="1.6" stroke-dasharray="6 4" marker-end="url(#arr-purple)"/>
<path d="M 560 216 L 560 236 L 390 236 L 390 248" fill="none" stroke="#7B4FD0" stroke-width="1.6" stroke-dasharray="6 4" marker-end="url(#arr-purple)"/>
<text x="475" y="229" text-anchor="middle" font-size="12" font-weight="500" fill="#7B4FD0">결과 이벤트 (객실 유형 id 키)</text>
<path d="M 320 335 L 215 335" fill="none" stroke="#7B4FD0" stroke-width="1.6" stroke-dasharray="6 4" marker-end="url(#arr-purple)"/>
<path d="M 525 408 L 559 408" fill="none" stroke="#1B2A41" stroke-width="1.6" marker-end="url(#arr-ink)"/>
<text x="569" y="412.5" text-anchor="start" font-size="12" font-weight="500" fill="#1B2A41">동기 호출</text>
<path d="M 525 436 L 559 436" fill="none" stroke="#7B4FD0" stroke-width="1.6" stroke-dasharray="6 4" marker-end="url(#arr-purple)"/>
<text x="569" y="440.5" text-anchor="start" font-size="12" font-weight="500" fill="#1B2A41">Kafka 이벤트</text>
<path d="M 525 464 L 559 464" fill="none" stroke="#8A97A8" stroke-width="1.6" marker-end="url(#arr-gray)"/>
<text x="569" y="468.5" text-anchor="start" font-size="12" font-weight="500" fill="#1B2A41">데이터 읽기·쓰기</text></svg>